STARTFONT 2.1
FONT -FontForge-Tahoma-Book-R-Normal--8-80-75-75-P-43-ISO10646-1
SIZE 8 75 75
FONTBOUNDINGBOX 11 10 0 -2
COMMENT "Generated by fontforge, http://fontforge.sourceforge.net"
COMMENT "Copyright (c) 2004 Larry Snyder, Based on Bitstream Vera Sans Copyright (c) 2003 by Bitstream, Inc. Font renamed in accordance with former's license. Please do not contact Bitstream Inc. for any reason regarding this font."
STARTPROPERTIES 40
FOUNDRY "FontForge"
FAMILY_NAME "Tahoma"
WEIGHT_NAME "Book"
SLANT "R"
SETWIDTH_NAME "Normal"
ADD_STYLE_NAME ""
PIXEL_SIZE 8
POINT_SIZE 80
RESOLUTION_X 75
RESOLUTION_Y 75
SPACING "P"
AVERAGE_WIDTH 43
CHARSET_REGISTRY "ISO10646"
CHARSET_ENCODING "1"
FONTNAME_REGISTRY ""
CHARSET_COLLECTIONS "ISO8859-2 ISO8859-5 ISO8859-9 ISO8859-6 ISO10646-1"
FONT_NAME "WineTahoma"
FACE_NAME "Tahoma"
COPYRIGHT "Copyright (c) 2004 Larry Snyder, Based on Bitstream Vera Sans Copyright (c) 2003 by Bitstream, Inc. Font renamed in accordance with former's license. Please do not contact Bitstream Inc. for any reason regarding this font."
FONT_VERSION "0.001"
FONT_ASCENT 6
FONT_DESCENT 2
UNDERLINE_POSITION -1
UNDERLINE_THICKNESS 1
X_HEIGHT 3
CAP_HEIGHT 5
RAW_ASCENT 799
RAW_DESCENT 200
NORM_SPACE 2
RELATIVE_WEIGHT 40
RELATIVE_SETWIDTH 50
SUPERSCRIPT_X 0
SUPERSCRIPT_Y 3
SUPERSCRIPT_SIZE 5
SUBSCRIPT_X 0
SUBSCRIPT_Y 1
SUBSCRIPT_SIZE 5
FIGURE_WIDTH 4
AVG_LOWERCASE_WIDTH 39
AVG_UPPERCASE_WIDTH 48
ENDPROPERTIES
CHARS 450
STARTCHAR space
ENCODING 32
SWIDTH 312 0
DWIDTH 2 0
BBX 1 1 0 0
BITMAP
00
ENDCHAR
STARTCHAR exclam
ENCODING 33
SWIDTH 332 0
DWIDTH 3 0
BBX 1 6 1 0
BITMAP
80
80
80
80
00
80
ENDCHAR
STARTCHAR quotedbl
ENCODING 34
SWIDTH 400 0
DWIDTH 3 0
BBX 3 2 0 4
BITMAP
A0
A0
ENDCHAR
STARTCHAR numbersign
ENCODING 35
SWIDTH 728 0
DWIDTH 6 0
BBX 5 6 2 0
BITMAP
50
F8
60
F0
A0
C0
ENDCHAR
STARTCHAR dollar
ENCODING 36
SWIDTH 545 0
DWIDTH 4 0
BBX 4 8 0 -1
BITMAP
20
60
C0
A0
20
B0
20
20
ENDCHAR
STARTCHAR percent
ENCODING 37
SWIDTH 977 0
DWIDTH 8 0
BBX 8 6 0 0
BITMAP
48
A8
6A
1D
29
22
ENDCHAR
STARTCHAR ampersand
ENCODING 38
SWIDTH 673 0
DWIDTH 5 0
BBX 5 7 0 0
BITMAP
20
70
40
68
98
88
F8
ENDCHAR
STARTCHAR quotesingle
ENCODING 39
SWIDTH 210 0
DWIDTH 2 0
BBX 1 2 0 4
BITMAP
80
80
ENDCHAR
STARTCHAR parenleft
ENCODING 40
SWIDTH 382 0
DWIDTH 3 0
BBX 3 8 0 -1
BITMAP
20
40
40
80
80
80
40
40
ENDCHAR
STARTCHAR parenright
ENCODING 41
SWIDTH 382 0
DWIDTH 3 0
BBX 3 8 0 -1
BITMAP
80
40
40
20
20
20
40
40
ENDCHAR
STARTCHAR asterisk
ENCODING 42
SWIDTH 545 0
DWIDTH 4 0
BBX 4 3 0 3
BITMAP
B0
20
B0
ENDCHAR
STARTCHAR plus
ENCODING 43
SWIDTH 728 0
DWIDTH 6 0
BBX 5 4 1 1
BITMAP
20
F8
20
20
ENDCHAR
STARTCHAR comma
ENCODING 44
SWIDTH 303 0
DWIDTH 2 0
BBX 1 1 1 0
BITMAP
80
ENDCHAR
STARTCHAR hyphen
ENCODING 45
SWIDTH 362 0
DWIDTH 3 0
BBX 2 1 1 2
BITMAP
C0
ENDCHAR
STARTCHAR period
ENCODING 46
SWIDTH 303 0
DWIDTH 2 0
BBX 1 1 0 0
BITMAP
80
ENDCHAR
STARTCHAR slash
ENCODING 47
SWIDTH 381 0
DWIDTH 3 0
BBX 2 6 0 0
BITMAP
40
40
40
80
80
80
ENDCHAR
STARTCHAR zero
ENCODING 48
SWIDTH 545 0
DWIDTH 4 0
BBX 3 6 0 0
BITMAP
40
A0
A0
A0
A0
40
ENDCHAR
STARTCHAR one
ENCODING 49
SWIDTH 545 0
DWIDTH 4 0
BBX 3 6 0 0
BITMAP
C0
40
40
40
40
E0
ENDCHAR
STARTCHAR two
ENCODING 50
SWIDTH 545 0
DWIDTH 4 0
BBX 3 6 0 0
BITMAP
40
A0
20
40
80
E0
ENDCHAR
STARTCHAR three
ENCODING 51
SWIDTH 545 0
DWIDTH 4 0
BBX 3 6 0 0
BITMAP
C0
20
C0
20
20
C0
ENDCHAR
STARTCHAR four
ENCODING 52
SWIDTH 545 0
DWIDTH 4 0
BBX 3 6 0 0
BITMAP
20
60
A0
E0
20
20
ENDCHAR
STARTCHAR five
ENCODING 53
SWIDTH 545 0
DWIDTH 4 0
BBX 3 6 0 0
BITMAP
60
80
C0
20
A0
40
ENDCHAR
STARTCHAR six
ENCODING 54
SWIDTH 545 0
DWIDTH 4 0
BBX 3 6 0 0
BITMAP
60
80
C0
A0
A0
40
ENDCHAR
STARTCHAR seven
ENCODING 55
SWIDTH 545 0
DWIDTH 4 0
BBX 3 6 0 0
BITMAP
E0
20
20
40
40
40
ENDCHAR
STARTCHAR eight
ENCODING 56
SWIDTH 545 0
DWIDTH 4 0
BBX 3 6 0 0
BITMAP
40
A0
40
A0
A0
40
ENDCHAR
STARTCHAR nine
ENCODING 57
SWIDTH 545 0
DWIDTH 4 0
BBX 3 6 0 0
BITMAP
40
A0
60
20
A0
40
ENDCHAR
STARTCHAR colon
ENCODING 58
SWIDTH 354 0
DWIDTH 3 0
BBX 1 4 1 0
BITMAP
80
00
00
80
ENDCHAR
STARTCHAR semicolon
ENCODING 59
SWIDTH 354 0
DWIDTH 3 0
BBX 2 5 0 -1
BITMAP
40
00
00
40
80
ENDCHAR
STARTCHAR less
ENCODING 60
SWIDTH 728 0
DWIDTH 6 0
BBX 4 5 1 0
BITMAP
10
60
80
60
10
ENDCHAR
STARTCHAR equal
ENCODING 61
SWIDTH 728 0
DWIDTH 6 0
BBX 4 3 1 1
BITMAP
F0
00
F0
ENDCHAR
STARTCHAR greater
ENCODING 62
SWIDTH 728 0
DWIDTH 6 0
BBX 4 5 1 0
BITMAP
80
60
10
60
80
ENDCHAR
STARTCHAR question
ENCODING 63
SWIDTH 474 0
DWIDTH 4 0
BBX 3 7 0 -1
BITMAP
40
A0
20
40
40
00
40
ENDCHAR
STARTCHAR at
ENCODING 64
SWIDTH 909 0
DWIDTH 7 0
BBX 6 7 0 -1
BITMAP
38
44
9C
AC
B0
40
3C
ENDCHAR
STARTCHAR A
ENCODING 65
SWIDTH 600 0
DWIDTH 5 0
BBX 4 6 0 0
BITMAP
20
50
50
70
90
90
ENDCHAR
STARTCHAR B
ENCODING 66
SWIDTH 588 0
DWIDTH 5 0
BBX 4 6 0 0
BITMAP
C0
A0
E0
90
90
F0
ENDCHAR
STARTCHAR C
ENCODING 67
SWIDTH 601 0
DWIDTH 5 0
BBX 4 6 0 0
BITMAP
60
90
80
80
90
60
ENDCHAR
STARTCHAR D
ENCODING 68
SWIDTH 678 0
DWIDTH 5 0
BBX 4 6 0 0
BITMAP
E0
90
90
90
90
E0
ENDCHAR
STARTCHAR E
ENCODING 69
SWIDTH 561 0
DWIDTH 4 0
BBX 3 6 0 0
BITMAP
E0
80
C0
80
80
E0
ENDCHAR
STARTCHAR F
ENCODING 70
SWIDTH 520 0
DWIDTH 4 0
BBX 3 6 0 0
BITMAP
E0
80
C0
80
80
80
ENDCHAR
STARTCHAR G
ENCODING 71
SWIDTH 666 0
DWIDTH 5 0
BBX 4 6 0 0
BITMAP
60
90
80
B0
90
70
ENDCHAR
STARTCHAR H
ENCODING 72
SWIDTH 674 0
DWIDTH 5 0
BBX 4 6 0 0
BITMAP
90
90
F0
90
90
90
ENDCHAR
STARTCHAR I
ENCODING 73
SWIDTH 373 0
DWIDTH 3 0
BBX 1 6 1 0
BITMAP
80
80
80
80
80
80
ENDCHAR
STARTCHAR J
ENCODING 74
SWIDTH 416 0
DWIDTH 3 0
BBX 2 8 0 -2
BITMAP
40
40
40
40
40
40
40
80
ENDCHAR
STARTCHAR K
ENCODING 75
SWIDTH 587 0
DWIDTH 5 0
BBX 4 6 0 0
BITMAP
90
A0
C0
A0
90
90
ENDCHAR
STARTCHAR L
ENCODING 76
SWIDTH 498 0
DWIDTH 4 0
BBX 3 6 0 0
BITMAP
80
80
80
80
80
E0
ENDCHAR
STARTCHAR M
ENCODING 77
SWIDTH 770 0
DWIDTH 6 0
BBX 5 6 0 0
BITMAP
88
D8
A8
88
88
88
ENDCHAR
STARTCHAR N
ENCODING 78
SWIDTH 666 0
DWIDTH 5 0
BBX 4 6 0 0
BITMAP
90
D0
D0
B0
B0
90
ENDCHAR
STARTCHAR O
ENCODING 79
SWIDTH 708 0
DWIDTH 6 0
BBX 5 6 0 0
BITMAP
70
88
88
88
88
70
ENDCHAR
STARTCHAR P
ENCODING 80
SWIDTH 550 0
DWIDTH 4 0
BBX 3 6 0 0
BITMAP
C0
A0
A0
C0
80
80
ENDCHAR
STARTCHAR Q
ENCODING 81
SWIDTH 708 0
DWIDTH 6 0
BBX 5 7 0 -1
BITMAP
70
88
88
88
88
70
18
ENDCHAR
STARTCHAR R
ENCODING 82
SWIDTH 621 0
DWIDTH 5 0
BBX 4 6 0 0
BITMAP
E0
90
90
E0
90
90
ENDCHAR
STARTCHAR S
ENCODING 83
SWIDTH 557 0
DWIDTH 4 0
BBX 3 6 0 0
BITMAP
60
80
40
20
20
C0
ENDCHAR
STARTCHAR T
ENCODING 84
SWIDTH 583 0
DWIDTH 5 0
BBX 3 6 1 0
BITMAP
E0
40
40
40
40
40
ENDCHAR
STARTCHAR U
ENCODING 85
SWIDTH 655 0
DWIDTH 5 0
BBX 4 6 0 0
BITMAP
90
90
90
90
90
60
ENDCHAR
STARTCHAR V
ENCODING 86
SWIDTH 597 0
DWIDTH 5 0
BBX 4 6 0 0
BITMAP
90
90
A0
60
40
40
ENDCHAR
STARTCHAR W
ENCODING 87
SWIDTH 901 0
DWIDTH 7 0
BBX 5 6 1 0
BITMAP
A8
A8
A8
50
50
50
ENDCHAR
STARTCHAR X
ENCODING 88
SWIDTH 581 0
DWIDTH 5 0
BBX 4 6 0 0
BITMAP
90
90
60
60
90
90
ENDCHAR
STARTCHAR Y
ENCODING 89
SWIDTH 576 0
DWIDTH 5 0
BBX 3 6 1 0
BITMAP
A0
A0
E0
40
40
40
ENDCHAR
STARTCHAR Z
ENCODING 90
SWIDTH 559 0
DWIDTH 4 0
BBX 3 6 0 0
BITMAP
E0
20
40
40
80
E0
ENDCHAR
STARTCHAR bracketleft
ENCODING 91
SWIDTH 382 0
DWIDTH 3 0
BBX 2 7 0 -1
BITMAP
C0
80
80
80
80
80
C0
ENDCHAR
STARTCHAR backslash
ENCODING 92
SWIDTH 381 0
DWIDTH 3 0
BBX 2 6 0 0
BITMAP
80
80
80
40
40
40
ENDCHAR
STARTCHAR bracketright
ENCODING 93
SWIDTH 382 0
DWIDTH 3 0
BBX 2 7 0 -1
BITMAP
C0
40
40
40
40
40
C0
ENDCHAR
STARTCHAR asciicircum
ENCODING 94
SWIDTH 728 0
DWIDTH 6 0
BBX 4 2 1 4
BITMAP
60
90
ENDCHAR
STARTCHAR underscore
ENCODING 95
SWIDTH 545 0
DWIDTH 4 0
BBX 4 1 0 -1
BITMAP
F0
ENDCHAR
STARTCHAR grave
ENCODING 96
SWIDTH 545 0
DWIDTH 4 0
BBX 2 2 1 5
BITMAP
80
40
ENDCHAR
STARTCHAR a
ENCODING 97
SWIDTH 524 0
DWIDTH 4 0
BBX 3 5 0 0
BITMAP
40
20
60
A0
60
ENDCHAR
STARTCHAR b
ENCODING 98
SWIDTH 553 0
DWIDTH 4 0
BBX 3 6 0 0
BITMAP
80
80
C0
A0
A0
E0
ENDCHAR
STARTCHAR c
ENCODING 99
SWIDTH 460 0
DWIDTH 4 0
BBX 3 4 0 0
BITMAP
60
80
80
60
ENDCHAR
STARTCHAR d
ENCODING 100
SWIDTH 553 0
DWIDTH 4 0
BBX 3 6 0 0
BITMAP
20
20
60
A0
A0
E0
ENDCHAR
STARTCHAR e
ENCODING 101
SWIDTH 525 0
DWIDTH 4 0
BBX 3 5 0 0
BITMAP
60
A0
E0
80
60
ENDCHAR
STARTCHAR f
ENCODING 102
SWIDTH 317 0
DWIDTH 3 0
BBX 2 6 0 0
BITMAP
40
80
C0
80
80
80
ENDCHAR
STARTCHAR g
ENCODING 103
SWIDTH 553 0
DWIDTH 4 0
BBX 3 7 0 -2
BITMAP
60
A0
A0
A0
60
20
E0
ENDCHAR
STARTCHAR h
ENCODING 104
SWIDTH 558 0
DWIDTH 4 0
BBX 3 6 0 0
BITMAP
80
80
C0
A0
A0
A0
ENDCHAR
STARTCHAR i
ENCODING 105
SWIDTH 229 0
DWIDTH 2 0
BBX 1 6 0 0
BITMAP
80
00
80
80
80
80
ENDCHAR
STARTCHAR j
ENCODING 106
SWIDTH 282 0
DWIDTH 2 0
BBX 1 8 0 -2
BITMAP
80
00
80
80
80
80
80
80
ENDCHAR
STARTCHAR k
ENCODING 107
SWIDTH 498 0
DWIDTH 4 0
BBX 3 6 0 0
BITMAP
80
A0
A0
C0
A0
A0
ENDCHAR
STARTCHAR l
ENCODING 108
SWIDTH 229 0
DWIDTH 2 0
BBX 1 6 0 0
BITMAP
80
80
80
80
80
80
ENDCHAR
STARTCHAR m
ENCODING 109
SWIDTH 839 0
DWIDTH 7 0
BBX 6 5 0 0
BITMAP
A8
D4
94
94
94
ENDCHAR
STARTCHAR n
ENCODING 110
SWIDTH 558 0
DWIDTH 4 0
BBX 3 4 0 0
BITMAP
C0
A0
A0
A0
ENDCHAR
STARTCHAR o
ENCODING 111
SWIDTH 542 0
DWIDTH 4 0
BBX 3 5 0 0
BITMAP
40
A0
A0
A0
40
ENDCHAR
STARTCHAR p
ENCODING 112
SWIDTH 553 0
DWIDTH 4 0
BBX 3 6 0 -2
BITMAP
C0
A0
A0
C0
80
80
ENDCHAR
STARTCHAR q
ENCODING 113
SWIDTH 553 0
DWIDTH 4 0
BBX 3 6 0 -2
BITMAP
60
A0
A0
60
20
20
ENDCHAR
STARTCHAR r
ENCODING 114
SWIDTH 359 0
DWIDTH 3 0
BBX 2 4 0 0
BITMAP
C0
80
80
80
ENDCHAR
STARTCHAR s
ENCODING 115
SWIDTH 445 0
DWIDTH 4 0
BBX 3 5 0 0
BITMAP
60
80
40
20
C0
ENDCHAR
STARTCHAR t
ENCODING 116
SWIDTH 333 0
DWIDTH 3 0
BBX 2 5 0 0
BITMAP
80
C0
80
80
40
ENDCHAR
STARTCHAR u
ENCODING 117
SWIDTH 558 0
DWIDTH 4 0
BBX 3 4 0 0
BITMAP
A0
A0
A0
60
ENDCHAR
STARTCHAR v
ENCODING 118
SWIDTH 498 0
DWIDTH 4 0
BBX 3 4 0 0
BITMAP
A0
A0
40
40
ENDCHAR
STARTCHAR w
ENCODING 119
SWIDTH 742 0
DWIDTH 6 0
BBX 5 4 0 0
BITMAP
A8
A8
50
50
ENDCHAR
STARTCHAR x
ENCODING 120
SWIDTH 495 0
DWIDTH 4 0
BBX 3 4 0 0
BITMAP
A0
40
40
A0
ENDCHAR
STARTCHAR y
ENCODING 121
SWIDTH 498 0
DWIDTH 4 0
BBX 3 6 0 -2
BITMAP
A0
A0
60
20
20
C0
ENDCHAR
STARTCHAR z
ENCODING 122
SWIDTH 443 0
DWIDTH 4 0
BBX 3 4 0 0
BITMAP
E0
20
40
E0
ENDCHAR
STARTCHAR braceleft
ENCODING 123
SWIDTH 479 0
DWIDTH 4 0
BBX 3 7 0 -1
BITMAP
20
40
40
C0
40
40
20
ENDCHAR
STARTCHAR bar
ENCODING 124
SWIDTH 381 0
DWIDTH 3 0
BBX 1 7 1 -1
BITMAP
80
80
80
80
80
80
80
ENDCHAR
STARTCHAR braceright
ENCODING 125
SWIDTH 479 0
DWIDTH 4 0
BBX 3 7 0 -1
BITMAP
80
40
40
60
40
40
80
ENDCHAR
STARTCHAR asciitilde
ENCODING 126
SWIDTH 728 0
DWIDTH 6 0
BBX 5 2 0 2
BITMAP
68
B0
ENDCHAR
STARTCHAR uni007F
ENCODING 127
SWIDTH 488 0
DWIDTH 4 0
BBX 1 1 0 0
BITMAP
00
ENDCHAR
STARTCHAR uni00A0
ENCODING 160
SWIDTH 312 0
DWIDTH 2 0
BBX 1 1 0 0
BITMAP
00
ENDCHAR
STARTCHAR exclamdown
ENCODING 161
SWIDTH 332 0
DWIDTH 3 0
BBX 1 6 1 0
BITMAP
80
00
80
80
80
80
ENDCHAR
STARTCHAR cent
ENCODING 162
SWIDTH 545 0
DWIDTH 4 0
BBX 3 6 0 -1
BITMAP
40
60
80
80
60
40
ENDCHAR
STARTCHAR sterling
ENCODING 163
SWIDTH 545 0
DWIDTH 4 0
BBX 3 6 0 0
BITMAP
20
40
40
E0
40
E0
ENDCHAR
STARTCHAR currency
ENCODING 164
SWIDTH 545 0
DWIDTH 4 0
BBX 3 3 0 2
BITMAP
A0
40
A0
ENDCHAR
STARTCHAR yen
ENCODING 165
SWIDTH 545 0
DWIDTH 4 0
BBX 3 6 0 0
BITMAP
A0
40
E0
40
E0
40
ENDCHAR
STARTCHAR brokenbar
ENCODING 166
SWIDTH 381 0
DWIDTH 3 0
BBX 1 7 1 -1
BITMAP
80
80
80
00
80
80
80
ENDCHAR
STARTCHAR section
ENCODING 167
SWIDTH 545 0
DWIDTH 4 0
BBX 3 7 0 -1
BITMAP
40
80
40
A0
40
20
40
ENDCHAR
STARTCHAR dieresis
ENCODING 168
SWIDTH 545 0
DWIDTH 4 0
BBX 3 1 0 5
BITMAP
A0
ENDCHAR
STARTCHAR copyright
ENCODING 169
SWIDTH 929 0
DWIDTH 7 0
BBX 6 7 0 -1
BITMAP
30
48
B4
A4
B4
48
30
ENDCHAR
STARTCHAR ordfeminine
ENCODING 170
SWIDTH 493 0
DWIDTH 4 0
BBX 3 5 0 2
BITMAP
40
20
60
A0
60
ENDCHAR
STARTCHAR guillemotleft
ENCODING 171
SWIDTH 573 0
DWIDTH 5 0
BBX 4 3 0 1
BITMAP
50
A0
50
ENDCHAR
STARTCHAR logicalnot
ENCODING 172
SWIDTH 728 0
DWIDTH 6 0
BBX 5 3 0 0
BITMAP
F8
08
08
ENDCHAR
STARTCHAR uni00AD
ENCODING 173
SWIDTH 363 0
DWIDTH 3 0
BBX 3 1 0 2
BITMAP
E0
ENDCHAR
STARTCHAR registered
ENCODING 174
SWIDTH 929 0
DWIDTH 7 0
BBX 6 7 0 -1
BITMAP
30
48
B4
A4
A4
48
30
ENDCHAR
STARTCHAR macron
ENCODING 175
SWIDTH 545 0
DWIDTH 4 0
BBX 3 1 0 6
BITMAP
E0
ENDCHAR
STARTCHAR degree
ENCODING 176
SWIDTH 471 0
DWIDTH 4 0
BBX 3 3 0 3
BITMAP
40
A0
40
ENDCHAR
STARTCHAR plusminus
ENCODING 177
SWIDTH 728 0
DWIDTH 6 0
BBX 3 5 2 0
BITMAP
40
E0
40
00
E0
ENDCHAR
STARTCHAR uni00B2
ENCODING 178
SWIDTH 493 0
DWIDTH 4 0
BBX 3 5 0 2
BITMAP
40
A0
20
40
E0
ENDCHAR
STARTCHAR uni00B3
ENCODING 179
SWIDTH 493 0
DWIDTH 4 0
BBX 3 5 0 2
BITMAP
E0
20
60
20
E0
ENDCHAR
STARTCHAR acute
ENCODING 180
SWIDTH 545 0
DWIDTH 4 0
BBX 2 2 1 5
BITMAP
40
80
ENDCHAR
STARTCHAR uni00B5
ENCODING 181
SWIDTH 567 0
DWIDTH 5 0
BBX 4 6 0 -2
BITMAP
90
90
90
E0
90
80
ENDCHAR
STARTCHAR paragraph
ENCODING 182
SWIDTH 545 0
DWIDTH 4 0
BBX 3 7 0 -1
BITMAP
60
A0
A0
60
60
60
60
ENDCHAR
STARTCHAR periodcentered
ENCODING 183
SWIDTH 303 0
DWIDTH 2 0
BBX 1 1 0 3
BITMAP
80
ENDCHAR
STARTCHAR cedilla
ENCODING 184
SWIDTH 545 0
DWIDTH 4 0
BBX 2 2 1 -2
BITMAP
40
C0
ENDCHAR
STARTCHAR uni00B9
ENCODING 185
SWIDTH 493 0
DWIDTH 4 0
BBX 3 4 0 2
BITMAP
C0
40
40
E0
ENDCHAR
STARTCHAR ordmasculine
ENCODING 186
SWIDTH 493 0
DWIDTH 4 0
BBX 3 4 0 2
BITMAP
40
A0
A0
40
ENDCHAR
STARTCHAR guillemotright
ENCODING 187
SWIDTH 573 0
DWIDTH 5 0
BBX 4 3 0 1
BITMAP
A0
50
A0
ENDCHAR
STARTCHAR onequarter
ENCODING 188
SWIDTH 1000 0
DWIDTH 8 0
BBX 7 9 0 -2
BITMAP
C0
48
48
50
12
26
2A
0E
02
ENDCHAR
STARTCHAR onehalf
ENCODING 189
SWIDTH 1000 0
DWIDTH 8 0
BBX 7 8 0 -1
BITMAP
C0
48
48
50
16
22
24
06
ENDCHAR
STARTCHAR threequarters
ENCODING 190
SWIDTH 1000 0
DWIDTH 8 0
BBX 7 9 0 -2
BITMAP
C0
48
C8
50
D2
16
2A
0E
02
ENDCHAR
STARTCHAR questiondown
ENCODING 191
SWIDTH 474 0
DWIDTH 4 0
BBX 3 7 0 0
BITMAP
40
00
40
40
80
A0
40
ENDCHAR
STARTCHAR Agrave
ENCODING 192
SWIDTH 600 0
DWIDTH 5 0
BBX 4 8 0 0
BITMAP
40
20
00
20
50
70
50
90
ENDCHAR
STARTCHAR Aacute
ENCODING 193
SWIDTH 600 0
DWIDTH 5 0
BBX 4 8 0 0
BITMAP
10
20
00
20
50
70
50
90
ENDCHAR
STARTCHAR Acircumflex
ENCODING 194
SWIDTH 600 0
DWIDTH 5 0
BBX 4 8 0 0
BITMAP
20
50
00
20
50
70
50
90
ENDCHAR
STARTCHAR Atilde
ENCODING 195
SWIDTH 600 0
DWIDTH 5 0
BBX 4 8 0 0
BITMAP
50
A0
00
20
50
70
50
90
ENDCHAR
STARTCHAR Adieresis
ENCODING 196
SWIDTH 600 0
DWIDTH 5 0
BBX 4 8 0 0
BITMAP
50
00
00
20
50
70
50
90
ENDCHAR
STARTCHAR Aring
ENCODING 197
SWIDTH 600 0
DWIDTH 5 0
BBX 4 8 0 0
BITMAP
20
50
20
20
50
70
50
90
ENDCHAR
STARTCHAR AE
ENCODING 198
SWIDTH 913 0
DWIDTH 7 0
BBX 6 6 0 0
BITMAP
3C
50
5C
70
90
9C
ENDCHAR
STARTCHAR Ccedilla
ENCODING 199
SWIDTH 601 0
DWIDTH 5 0
BBX 4 8 0 -2
BITMAP
60
90
80
80
90
60
20
40
ENDCHAR
STARTCHAR Egrave
ENCODING 200
SWIDTH 561 0
DWIDTH 4 0
BBX 3 8 0 0
BITMAP
40
20
00
E0
80
E0
80
E0
ENDCHAR
STARTCHAR Eacute
ENCODING 201
SWIDTH 561 0
DWIDTH 4 0
BBX 3 8 0 0
BITMAP
20
40
00
E0
80
E0
80
E0
ENDCHAR
STARTCHAR Ecircumflex
ENCODING 202
SWIDTH 561 0
DWIDTH 4 0
BBX 3 8 0 0
BITMAP
40
A0
00
E0
80
E0
80
E0
ENDCHAR
STARTCHAR Edieresis
ENCODING 203
SWIDTH 561 0
DWIDTH 4 0
BBX 3 7 0 0
BITMAP
A0
00
E0
80
E0
80
E0
ENDCHAR
STARTCHAR Igrave
ENCODING 204
SWIDTH 373 0
DWIDTH 3 0
BBX 2 8 0 0
BITMAP
80
40
00
40
40
40
40
40
ENDCHAR
STARTCHAR Iacute
ENCODING 205
SWIDTH 373 0
DWIDTH 3 0
BBX 2 8 0 0
BITMAP
40
80
00
80
80
80
80
80
ENDCHAR
STARTCHAR Icircumflex
ENCODING 206
SWIDTH 373 0
DWIDTH 3 0
BBX 2 8 0 0
BITMAP
40
C0
00
40
40
40
40
40
ENDCHAR
STARTCHAR Idieresis
ENCODING 207
SWIDTH 373 0
DWIDTH 3 0
BBX 2 8 0 0
BITMAP
C0
00
00
40
40
40
40
40
ENDCHAR
STARTCHAR Eth
ENCODING 208
SWIDTH 698 0
DWIDTH 6 0
BBX 5 6 0 0
BITMAP
70
48
E8
48
48
70
ENDCHAR
STARTCHAR Ntilde
ENCODING 209
SWIDTH 666 0
DWIDTH 5 0
BBX 4 8 0 0
BITMAP
50
A0
00
90
D0
B0
90
90
ENDCHAR
STARTCHAR Ograve
ENCODING 210
SWIDTH 708 0
DWIDTH 6 0
BBX 5 8 0 0
BITMAP
40
20
00
70
88
88
88
70
ENDCHAR
STARTCHAR Oacute
ENCODING 211
SWIDTH 708 0
DWIDTH 6 0
BBX 5 8 0 0
BITMAP
10
20
00
70
88
88
88
70
ENDCHAR
STARTCHAR Ocircumflex
ENCODING 212
SWIDTH 708 0
DWIDTH 6 0
BBX 5 8 0 0
BITMAP
20
50
00
70
88
88
88
70
ENDCHAR
STARTCHAR Otilde
ENCODING 213
SWIDTH 708 0
DWIDTH 6 0
BBX 5 8 0 0
BITMAP
50
A0
00
70
88
88
88
70
ENDCHAR
STARTCHAR Odieresis
ENCODING 214
SWIDTH 708 0
DWIDTH 6 0
BBX 5 7 0 0
BITMAP
50
00
70
88
88
88
70
ENDCHAR
STARTCHAR multiply
ENCODING 215
SWIDTH 728 0
DWIDTH 6 0
BBX 5 5 0 0
BITMAP
88
50
20
50
88
ENDCHAR
STARTCHAR Oslash
ENCODING 216
SWIDTH 708 0
DWIDTH 6 0
BBX 5 6 0 0
BITMAP
68
90
B0
D0
70
80
ENDCHAR
STARTCHAR Ugrave
ENCODING 217
SWIDTH 655 0
DWIDTH 5 0
BBX 4 8 0 0
BITMAP
40
20
00
90
90
90
90
60
ENDCHAR
STARTCHAR Uacute
ENCODING 218
SWIDTH 655 0
DWIDTH 5 0
BBX 4 8 0 0
BITMAP
20
40
00
90
90
90
90
60
ENDCHAR
STARTCHAR Ucircumflex
ENCODING 219
SWIDTH 655 0
DWIDTH 5 0
BBX 4 8 0 0
BITMAP
40
A0
00
90
90
90
90
60
ENDCHAR
STARTCHAR Udieresis
ENCODING 220
SWIDTH 655 0
DWIDTH 5 0
BBX 4 7 0 0
BITMAP
A0
00
90
90
90
90
60
ENDCHAR
STARTCHAR Yacute
ENCODING 221
SWIDTH 576 0
DWIDTH 5 0
BBX 3 8 0 0
BITMAP
20
40
00
A0
A0
40
40
40
ENDCHAR
STARTCHAR Thorn
ENCODING 222
SWIDTH 564 0
DWIDTH 5 0
BBX 3 6 1 0
BITMAP
80
C0
A0
A0
C0
80
ENDCHAR
STARTCHAR germandbls
ENCODING 223
SWIDTH 547 0
DWIDTH 4 0
BBX 3 6 0 0
BITMAP
40
A0
A0
E0
A0
E0
ENDCHAR
STARTCHAR agrave
ENCODING 224
SWIDTH 524 0
DWIDTH 4 0
BBX 3 8 0 0
BITMAP
80
40
00
40
20
60
A0
60
ENDCHAR
STARTCHAR aacute
ENCODING 225
SWIDTH 524 0
DWIDTH 4 0
BBX 3 8 0 0
BITMAP
20
40
00
40
20
60
A0
60
ENDCHAR
STARTCHAR acircumflex
ENCODING 226
SWIDTH 524 0
DWIDTH 4 0
BBX 3 8 0 0
BITMAP
40
A0
00
40
20
60
A0
60
ENDCHAR
STARTCHAR atilde
ENCODING 227
SWIDTH 524 0
DWIDTH 4 0
BBX 3 8 0 0
BITMAP
60
A0
00
40
20
60
A0
60
ENDCHAR
STARTCHAR adieresis
ENCODING 228
SWIDTH 524 0
DWIDTH 4 0
BBX 3 7 0 0
BITMAP
A0
00
40
20
60
A0
60
ENDCHAR
STARTCHAR aring
ENCODING 229
SWIDTH 524 0
DWIDTH 4 0
BBX 3 8 0 0
BITMAP
60
60
00
40
20
60
A0
60
ENDCHAR
STARTCHAR ae
ENCODING 230
SWIDTH 879 0
DWIDTH 7 0
BBX 5 5 0 0
BITMAP
50
28
78
A0
78
ENDCHAR
STARTCHAR ccedilla
ENCODING 231
SWIDTH 460 0
DWIDTH 4 0
BBX 3 6 0 -1
BITMAP
60
80
80
60
20
60
ENDCHAR
STARTCHAR egrave
ENCODING 232
SWIDTH 525 0
DWIDTH 4 0
BBX 3 8 0 0
BITMAP
80
40
00
40
A0
E0
80
60
ENDCHAR
STARTCHAR eacute
ENCODING 233
SWIDTH 525 0
DWIDTH 4 0
BBX 3 8 0 0
BITMAP
40
80
00
40
A0
E0
80
60
ENDCHAR
STARTCHAR ecircumflex
ENCODING 234
SWIDTH 525 0
DWIDTH 4 0
BBX 3 8 0 0
BITMAP
40
A0
00
40
A0
E0
80
60
ENDCHAR
STARTCHAR edieresis
ENCODING 235
SWIDTH 525 0
DWIDTH 4 0
BBX 3 7 0 0
BITMAP
A0
00
40
A0
E0
80
60
ENDCHAR
STARTCHAR igrave
ENCODING 236
SWIDTH 229 0
DWIDTH 2 0
BBX 1 8 0 0
BITMAP
80
80
00
80
80
80
80
80
ENDCHAR
STARTCHAR iacute
ENCODING 237
SWIDTH 229 0
DWIDTH 2 0
BBX 1 8 0 0
BITMAP
80
80
00
80
80
80
80
80
ENDCHAR
STARTCHAR icircumflex
ENCODING 238
SWIDTH 229 0
DWIDTH 2 0
BBX 1 8 0 0
BITMAP
80
80
00
80
80
80
80
80
ENDCHAR
STARTCHAR idieresis
ENCODING 239
SWIDTH 229 0
DWIDTH 2 0
BBX 1 7 0 0
BITMAP
80
00
80
80
80
80
80
ENDCHAR
STARTCHAR eth
ENCODING 240
SWIDTH 545 0
DWIDTH 4 0
BBX 3 7 0 0
BITMAP
40
E0
40
60
A0
A0
60
ENDCHAR
STARTCHAR ntilde
ENCODING 241
SWIDTH 558 0
DWIDTH 4 0
BBX 3 7 0 0
BITMAP
60
A0
00
00
E0
A0
A0
ENDCHAR
STARTCHAR ograve
ENCODING 242
SWIDTH 542 0
DWIDTH 4 0
BBX 3 7 0 0
BITMAP
80
40
00
40
A0
A0
40
ENDCHAR
STARTCHAR oacute
ENCODING 243
SWIDTH 542 0
DWIDTH 4 0
BBX 3 7 0 0
BITMAP
20
40
00
40
A0
A0
40
ENDCHAR
STARTCHAR ocircumflex
ENCODING 244
SWIDTH 542 0
DWIDTH 4 0
BBX 3 7 0 0
BITMAP
40
A0
00
40
A0
A0
40
ENDCHAR
STARTCHAR otilde
ENCODING 245
SWIDTH 542 0
DWIDTH 4 0
BBX 3 7 0 0
BITMAP
60
A0
00
40
A0
A0
40
ENDCHAR
STARTCHAR odieresis
ENCODING 246
SWIDTH 542 0
DWIDTH 4 0
BBX 3 6 0 0
BITMAP
A0
00
40
A0
A0
40
ENDCHAR
STARTCHAR divide
ENCODING 247
SWIDTH 728 0
DWIDTH 6 0
BBX 5 5 0 0
BITMAP
20
00
F8
00
20
ENDCHAR
STARTCHAR oslash
ENCODING 248
SWIDTH 542 0
DWIDTH 4 0
BBX 4 6 0 -1
BITMAP
10
60
B0
D0
60
80
ENDCHAR
STARTCHAR ugrave
ENCODING 249
SWIDTH 558 0
DWIDTH 4 0
BBX 3 7 0 0
BITMAP
80
40
00
A0
A0
A0
60
ENDCHAR
STARTCHAR uacute
ENCODING 250
SWIDTH 558 0
DWIDTH 4 0
BBX 3 7 0 0
BITMAP
40
80
00
A0
A0
A0
60
ENDCHAR
STARTCHAR ucircumflex
ENCODING 251
SWIDTH 558 0
DWIDTH 4 0
BBX 3 7 0 0
BITMAP
40
A0
00
A0
A0
A0
60
ENDCHAR
STARTCHAR udieresis
ENCODING 252
SWIDTH 558 0
DWIDTH 4 0
BBX 3 6 0 0
BITMAP
A0
00
A0
A0
A0
60
ENDCHAR
STARTCHAR yacute
ENCODING 253
SWIDTH 498 0
DWIDTH 4 0
BBX 3 8 0 -1
BITMAP
20
40
00
A0
A0
60
20
C0
ENDCHAR
STARTCHAR thorn
ENCODING 254
SWIDTH 553 0
DWIDTH 4 0
BBX 3 7 0 -1
BITMAP
80
E0
A0
A0
E0
80
C0
ENDCHAR
STARTCHAR ydieresis
ENCODING 255
SWIDTH 498 0
DWIDTH 4 0
BBX 3 7 0 -1
BITMAP
A0
00
A0
A0
60
20
C0
ENDCHAR
STARTCHAR Amacron
ENCODING 256
SWIDTH 600 0
DWIDTH 5 0
BBX 4 7 0 0
BITMAP
70
00
20
50
70
50
90
ENDCHAR
STARTCHAR amacron
ENCODING 257
SWIDTH 524 0
DWIDTH 4 0
BBX 3 7 0 0
BITMAP
C0
00
40
20
60
A0
60
ENDCHAR
STARTCHAR Abreve
ENCODING 258
SWIDTH 600 0
DWIDTH 5 0
BBX 4 8 0 0
BITMAP
50
20
00
20
50
70
50
90
ENDCHAR
STARTCHAR abreve
ENCODING 259
SWIDTH 524 0
DWIDTH 4 0
BBX 3 8 0 0
BITMAP
A0
E0
00
40
20
60
A0
60
ENDCHAR
STARTCHAR Aogonek
ENCODING 260
SWIDTH 600 0
DWIDTH 5 0
BBX 4 6 0 -1
BITMAP
40
A0
E0
A0
A0
30
ENDCHAR
STARTCHAR aogonek
ENCODING 261
SWIDTH 524 0
DWIDTH 4 0
BBX 3 7 0 -2
BITMAP
40
20
60
A0
60
40
20
ENDCHAR
STARTCHAR Cacute
ENCODING 262
SWIDTH 601 0
DWIDTH 5 0
BBX 4 8 0 0
BITMAP
20
40
00
60
90
80
90
60
ENDCHAR
STARTCHAR cacute
ENCODING 263
SWIDTH 460 0
DWIDTH 4 0
BBX 3 7 0 0
BITMAP
20
40
00
60
80
80
60
ENDCHAR
STARTCHAR Ccircumflex
ENCODING 264
SWIDTH 601 0
DWIDTH 5 0
BBX 4 8 0 0
BITMAP
40
A0
00
60
90
80
90
60
ENDCHAR
STARTCHAR ccircumflex
ENCODING 265
SWIDTH 460 0
DWIDTH 4 0
BBX 3 7 0 0
BITMAP
40
A0
00
60
80
80
60
ENDCHAR
STARTCHAR Cdotaccent
ENCODING 266
SWIDTH 601 0
DWIDTH 5 0
BBX 4 7 0 0
BITMAP
20
00
60
90
80
90
60
ENDCHAR
STARTCHAR cdotaccent
ENCODING 267
SWIDTH 466 0
DWIDTH 4 0
BBX 3 6 0 0
BITMAP
40
00
60
80
80
60
ENDCHAR
STARTCHAR Ccaron
ENCODING 268
SWIDTH 601 0
DWIDTH 5 0
BBX 4 8 0 0
BITMAP
A0
40
00
60
90
80
90
60
ENDCHAR
STARTCHAR ccaron
ENCODING 269
SWIDTH 460 0
DWIDTH 4 0
BBX 3 7 0 0
BITMAP
A0
40
00
60
80
80
60
ENDCHAR
STARTCHAR Dcaron
ENCODING 270
SWIDTH 678 0
DWIDTH 5 0
BBX 4 8 0 0
BITMAP
A0
40
00
E0
90
90
90
E0
ENDCHAR
STARTCHAR dcaron
ENCODING 271
SWIDTH 687 0
DWIDTH 5 0
BBX 4 7 0 0
BITMAP
10
30
20
60
A0
A0
60
ENDCHAR
STARTCHAR Dcroat
ENCODING 272
SWIDTH 678 0
DWIDTH 5 0
BBX 4 5 0 0
BITMAP
60
50
D0
50
60
ENDCHAR
STARTCHAR dcroat
ENCODING 273
SWIDTH 553 0
DWIDTH 4 0
BBX 3 7 0 0
BITMAP
20
60
20
60
A0
A0
60
ENDCHAR
STARTCHAR Emacron
ENCODING 274
SWIDTH 561 0
DWIDTH 4 0
BBX 3 7 0 0
BITMAP
E0
00
E0
80
E0
80
E0
ENDCHAR
STARTCHAR emacron
ENCODING 275
SWIDTH 525 0
DWIDTH 4 0
BBX 3 7 0 0
BITMAP
C0
00
40
A0
E0
80
60
ENDCHAR
STARTCHAR Ebreve
ENCODING 276
SWIDTH 561 0
DWIDTH 4 0
BBX 3 8 0 0
BITMAP
A0
E0
00
E0
80
E0
80
E0
ENDCHAR
STARTCHAR ebreve
ENCODING 277
SWIDTH 525 0
DWIDTH 4 0
BBX 3 8 0 0
BITMAP
A0
E0
00
40
A0
E0
80
60
ENDCHAR
STARTCHAR Edotaccent
ENCODING 278
SWIDTH 561 0
DWIDTH 4 0
BBX 3 7 0 0
BITMAP
40
00
E0
80
E0
80
E0
ENDCHAR
STARTCHAR edotaccent
ENCODING 279
SWIDTH 525 0
DWIDTH 4 0
BBX 3 7 0 0
BITMAP
40
00
40
A0
E0
80
60
ENDCHAR
STARTCHAR Eogonek
ENCODING 280
SWIDTH 561 0
DWIDTH 4 0
BBX 3 7 0 -1
BITMAP
E0
80
E0
80
E0
40
20
ENDCHAR
STARTCHAR eogonek
ENCODING 281
SWIDTH 525 0
DWIDTH 4 0
BBX 3 7 0 -1
BITMAP
40
A0
E0
80
60
40
20
ENDCHAR
STARTCHAR Ecaron
ENCODING 282
SWIDTH 561 0
DWIDTH 4 0
BBX 3 8 0 0
BITMAP
A0
40
00
E0
80
E0
80
E0
ENDCHAR
STARTCHAR ecaron
ENCODING 283
SWIDTH 525 0
DWIDTH 4 0
BBX 3 8 0 0
BITMAP
A0
40
00
40
A0
E0
80
60
ENDCHAR
STARTCHAR Gcircumflex
ENCODING 284
SWIDTH 666 0
DWIDTH 5 0
BBX 4 8 0 0
BITMAP
40
A0
00
70
80
B0
90
70
ENDCHAR
STARTCHAR gcircumflex
ENCODING 285
SWIDTH 553 0
DWIDTH 4 0
BBX 3 8 0 -1
BITMAP
40
A0
00
60
A0
60
20
C0
ENDCHAR
STARTCHAR Gbreve
ENCODING 286
SWIDTH 666 0
DWIDTH 5 0
BBX 4 8 0 0
BITMAP
A0
E0
00
70
80
B0
90
70
ENDCHAR
STARTCHAR gbreve
ENCODING 287
SWIDTH 553 0
DWIDTH 4 0
BBX 3 8 0 -1
BITMAP
A0
E0
00
60
A0
60
20
C0
ENDCHAR
STARTCHAR Gdotaccent
ENCODING 288
SWIDTH 666 0
DWIDTH 5 0
BBX 4 7 0 0
BITMAP
40
00
70
80
B0
90
70
ENDCHAR
STARTCHAR gdotaccent
ENCODING 289
SWIDTH 553 0
DWIDTH 4 0
BBX 3 7 0 -1
BITMAP
40
00
60
A0
60
20
C0
ENDCHAR
STARTCHAR Gcommaaccent
ENCODING 290
SWIDTH 666 0
DWIDTH 5 0
BBX 4 8 0 -2
BITMAP
60
90
80
B0
90
70
10
20
ENDCHAR
STARTCHAR gcommaaccent
ENCODING 291
SWIDTH 553 0
DWIDTH 4 0
BBX 3 8 0 -1
BITMAP
40
80
00
60
A0
60
20
C0
ENDCHAR
STARTCHAR Hcircumflex
ENCODING 292
SWIDTH 674 0
DWIDTH 5 0
BBX 4 8 0 0
BITMAP
40
A0
00
90
90
F0
90
90
ENDCHAR
STARTCHAR hcircumflex
ENCODING 293
SWIDTH 558 0
DWIDTH 4 0
BBX 3 8 0 0
BITMAP
40
A0
00
80
80
E0
A0
A0
ENDCHAR
STARTCHAR Hbar
ENCODING 294
SWIDTH 674 0
DWIDTH 5 0
BBX 5 6 0 0
BITMAP
F8
50
F8
50
50
50
ENDCHAR
STARTCHAR hbar
ENCODING 295
SWIDTH 558 0
DWIDTH 4 0
BBX 3 7 0 0
BITMAP
40
E0
40
C0
A0
A0
A0
ENDCHAR
STARTCHAR Itilde
ENCODING 296
SWIDTH 373 0
DWIDTH 3 0
BBX 3 8 0 0
BITMAP
60
C0
00
40
40
40
40
40
ENDCHAR
STARTCHAR itilde
ENCODING 297
SWIDTH 229 0
DWIDTH 2 0
BBX 2 7 0 0
BITMAP
80
40
80
80
80
80
80
ENDCHAR
STARTCHAR Imacron
ENCODING 298
SWIDTH 373 0
DWIDTH 3 0
BBX 2 7 0 0
BITMAP
C0
00
40
40
40
40
40
ENDCHAR
STARTCHAR imacron
ENCODING 299
SWIDTH 229 0
DWIDTH 2 0
BBX 2 6 0 0
BITMAP
C0
00
80
80
80
80
ENDCHAR
STARTCHAR Ibreve
ENCODING 300
SWIDTH 373 0
DWIDTH 3 0
BBX 3 8 0 0
BITMAP
A0
E0
00
40
40
40
40
40
ENDCHAR
STARTCHAR ibreve
ENCODING 301
SWIDTH 229 0
DWIDTH 2 0
BBX 2 6 0 0
BITMAP
C0
00
80
80
80
80
ENDCHAR
STARTCHAR Iogonek
ENCODING 302
SWIDTH 373 0
DWIDTH 3 0
BBX 2 7 1 -2
BITMAP
80
80
80
80
80
80
40
ENDCHAR
STARTCHAR iogonek
ENCODING 303
SWIDTH 229 0
DWIDTH 2 0
BBX 2 9 0 -2
BITMAP
80
00
80
80
80
80
80
80
40
ENDCHAR
STARTCHAR Idotaccent
ENCODING 304
SWIDTH 373 0
DWIDTH 3 0
BBX 1 7 0 0
BITMAP
80
00
80
80
80
80
80
ENDCHAR
STARTCHAR dotlessi
ENCODING 305
SWIDTH 229 0
DWIDTH 2 0
BBX 1 4 0 0
BITMAP
80
80
80
80
ENDCHAR
STARTCHAR Lacute
ENCODING 313
SWIDTH 498 0
DWIDTH 4 0
BBX 3 8 0 0
BITMAP
20
40
00
80
80
80
80
E0
ENDCHAR
STARTCHAR lacute
ENCODING 314
SWIDTH 229 0
DWIDTH 2 0
BBX 2 8 0 0
BITMAP
40
80
00
80
80
80
80
80
ENDCHAR
STARTCHAR Lcaron
ENCODING 317
SWIDTH 498 0
DWIDTH 4 0
BBX 4 7 0 0
BITMAP
10
20
80
80
80
80
E0
ENDCHAR
STARTCHAR lcaron
ENCODING 318
SWIDTH 229 0
DWIDTH 2 0
BBX 2 7 0 0
BITMAP
40
40
80
80
80
80
80
ENDCHAR
STARTCHAR Lslash
ENCODING 321
SWIDTH 604 0
DWIDTH 5 0
BBX 4 6 0 0
BITMAP
40
50
60
C0
40
70
ENDCHAR
STARTCHAR lslash
ENCODING 322
SWIDTH 273 0
DWIDTH 2 0
BBX 2 6 0 0
BITMAP
80
80
C0
80
80
80
ENDCHAR
STARTCHAR Nacute
ENCODING 323
SWIDTH 666 0
DWIDTH 5 0
BBX 4 8 0 0
BITMAP
20
40
90
D0
B0
B0
90
90
ENDCHAR
STARTCHAR nacute
ENCODING 324
SWIDTH 558 0
DWIDTH 4 0
BBX 3 7 0 0
BITMAP
40
80
00
C0
A0
A0
A0
ENDCHAR
STARTCHAR Ncaron
ENCODING 327
SWIDTH 666 0
DWIDTH 5 0
BBX 4 8 0 0
BITMAP
A0
40
00
90
D0
B0
90
90
ENDCHAR
STARTCHAR ncaron
ENCODING 328
SWIDTH 558 0
DWIDTH 4 0
BBX 3 7 0 0
BITMAP
A0
40
00
C0
A0
A0
A0
ENDCHAR
STARTCHAR Ohungarumlaut
ENCODING 336
SWIDTH 708 0
DWIDTH 6 0
BBX 5 8 0 0
BITMAP
48
90
00
70
88
88
88
70
ENDCHAR
STARTCHAR ohungarumlaut
ENCODING 337
SWIDTH 542 0
DWIDTH 4 0
BBX 3 8 0 0
BITMAP
A0
A0
00
40
A0
A0
A0
40
ENDCHAR
STARTCHAR OE
ENCODING 338
SWIDTH 977 0
DWIDTH 8 0
BBX 6 6 1 0
BITMAP
7C
90
9C
90
90
7C
ENDCHAR
STARTCHAR oe
ENCODING 339
SWIDTH 909 0
DWIDTH 7 0
BBX 6 5 0 0
BITMAP
68
94
9C
90
7C
ENDCHAR
STARTCHAR Racute
ENCODING 340
SWIDTH 621 0
DWIDTH 5 0
BBX 4 8 0 0
BITMAP
20
40
00
E0
90
F0
90
90
ENDCHAR
STARTCHAR racute
ENCODING 341
SWIDTH 359 0
DWIDTH 3 0
BBX 2 7 0 0
BITMAP
40
80
00
C0
80
80
80
ENDCHAR
STARTCHAR Rcaron
ENCODING 344
SWIDTH 621 0
DWIDTH 5 0
BBX 4 8 0 0
BITMAP
A0
40
00
E0
90
F0
90
90
ENDCHAR
STARTCHAR rcaron
ENCODING 345
SWIDTH 359 0
DWIDTH 3 0
BBX 2 7 0 0
BITMAP
C0
80
00
C0
80
80
80
ENDCHAR
STARTCHAR Sacute
ENCODING 346
SWIDTH 557 0
DWIDTH 4 0
BBX 3 8 0 0
BITMAP
40
80
00
E0
80
E0
20
E0
ENDCHAR
STARTCHAR sacute
ENCODING 347
SWIDTH 445 0
DWIDTH 4 0
BBX 3 7 0 0
BITMAP
80
00
E0
80
E0
20
E0
ENDCHAR
STARTCHAR Scedilla
ENCODING 350
SWIDTH 557 0
DWIDTH 4 0
BBX 3 6 0 -1
BITMAP
E0
80
E0
20
E0
20
ENDCHAR
STARTCHAR scedilla
ENCODING 351
SWIDTH 445 0
DWIDTH 4 0
BBX 3 6 0 -1
BITMAP
E0
80
E0
20
E0
20
ENDCHAR
STARTCHAR Scaron
ENCODING 352
SWIDTH 557 0
DWIDTH 4 0
BBX 3 8 0 0
BITMAP
A0
40
00
E0
80
E0
20
E0
ENDCHAR
STARTCHAR scaron
ENCODING 353
SWIDTH 445 0
DWIDTH 4 0
BBX 3 8 0 0
BITMAP
A0
40
00
E0
80
E0
20
E0
ENDCHAR
STARTCHAR Tcommaaccent
ENCODING 354
SWIDTH 583 0
DWIDTH 5 0
BBX 3 8 0 -2
BITMAP
E0
40
40
40
40
40
20
40
ENDCHAR
STARTCHAR tcommaaccent
ENCODING 355
SWIDTH 333 0
DWIDTH 3 0
BBX 2 8 0 -2
BITMAP
80
C0
80
80
80
C0
40
80
ENDCHAR
STARTCHAR Tcaron
ENCODING 356
SWIDTH 583 0
DWIDTH 5 0
BBX 3 8 0 0
BITMAP
A0
40
00
E0
40
40
40
40
ENDCHAR
STARTCHAR tcaron
ENCODING 357
SWIDTH 333 0
DWIDTH 3 0
BBX 2 8 0 0
BITMAP
40
80
00
80
C0
80
80
40
ENDCHAR
STARTCHAR Umacron
ENCODING 362
SWIDTH 655 0
DWIDTH 5 0
BBX 4 7 0 0
BITMAP
F0
00
90
90
90
90
60
ENDCHAR
STARTCHAR umacron
ENCODING 363
SWIDTH 558 0
DWIDTH 4 0
BBX 3 6 0 0
BITMAP
E0
00
A0
A0
A0
60
ENDCHAR
STARTCHAR Uring
ENCODING 366
SWIDTH 655 0
DWIDTH 5 0
BBX 4 8 0 0
BITMAP
60
60
00
90
90
90
90
60
ENDCHAR
STARTCHAR uring
ENCODING 367
SWIDTH 558 0
DWIDTH 4 0
BBX 3 7 0 0
BITMAP
C0
C0
00
A0
A0
A0
60
ENDCHAR
STARTCHAR Uhungarumlaut
ENCODING 368
SWIDTH 655 0
DWIDTH 5 0
BBX 4 8 0 0
BITMAP
A0
A0
00
90
90
90
90
60
ENDCHAR
STARTCHAR uhungarumlaut
ENCODING 369
SWIDTH 558 0
DWIDTH 4 0
BBX 3 7 0 0
BITMAP
A0
A0
00
A0
A0
A0
60
ENDCHAR
STARTCHAR Uogonek
ENCODING 370
SWIDTH 655 0
DWIDTH 5 0
BBX 4 8 0 -2
BITMAP
90
90
90
90
90
70
20
10
ENDCHAR
STARTCHAR uogonek
ENCODING 371
SWIDTH 558 0
DWIDTH 4 0
BBX 3 5 0 -1
BITMAP
A0
A0
A0
60
20
ENDCHAR
STARTCHAR Ydieresis
ENCODING 376
SWIDTH 576 0
DWIDTH 5 0
BBX 3 8 0 0
BITMAP
A0
00
A0
E0
40
40
40
40
ENDCHAR
STARTCHAR Zacute
ENCODING 377
SWIDTH 559 0
DWIDTH 4 0
BBX 3 8 0 0
BITMAP
40
80
00
E0
20
40
80
E0
ENDCHAR
STARTCHAR zacute
ENCODING 378
SWIDTH 443 0
DWIDTH 4 0
BBX 3 7 0 0
BITMAP
40
80
00
E0
40
80
E0
ENDCHAR
STARTCHAR Zdotaccent
ENCODING 379
SWIDTH 559 0
DWIDTH 4 0
BBX 3 7 0 0
BITMAP
40
00
E0
20
40
80
E0
ENDCHAR
STARTCHAR zdotaccent
ENCODING 380
SWIDTH 443 0
DWIDTH 4 0
BBX 3 6 0 0
BITMAP
40
00
E0
40
80
E0
ENDCHAR
STARTCHAR Zcaron
ENCODING 381
SWIDTH 559 0
DWIDTH 4 0
BBX 3 8 0 0
BITMAP
A0
40
00
E0
20
40
80
E0
ENDCHAR
STARTCHAR zcaron
ENCODING 382
SWIDTH 443 0
DWIDTH 4 0
BBX 3 7 0 0
BITMAP
A0
40
00
E0
40
80
E0
ENDCHAR
STARTCHAR florin
ENCODING 402
SWIDTH 545 0
DWIDTH 4 0
BBX 3 7 0 -1
BITMAP
60
40
E0
40
40
40
C0
ENDCHAR
STARTCHAR Ohorn
ENCODING 416
SWIDTH 910 0
DWIDTH 7 0
BBX 6 6 0 0
BITMAP
74
88
88
88
88
70
ENDCHAR
STARTCHAR Scommaaccent
ENCODING 536
SWIDTH 557 0
DWIDTH 4 0
BBX 3 7 0 -2
BITMAP
E0
80
E0
20
E0
20
40
ENDCHAR
STARTCHAR scommaaccent
ENCODING 537
SWIDTH 445 0
DWIDTH 4 0
BBX 3 6 0 -1
BITMAP
E0
80
E0
20
E0
40
ENDCHAR
STARTCHAR uni021A
ENCODING 538
SWIDTH 583 0
DWIDTH 5 0
BBX 3 8 1 -2
BITMAP
E0
40
40
40
40
00
40
80
ENDCHAR
STARTCHAR uni021B
ENCODING 539
SWIDTH 333 0
DWIDTH 3 0
BBX 2 8 0 -2
BITMAP
80
C0
80
80
80
40
40
80
ENDCHAR
STARTCHAR circumflex
ENCODING 710
SWIDTH 545 0
DWIDTH 4 0
BBX 3 2 1 5
BITMAP
40
A0
ENDCHAR
STARTCHAR caron
ENCODING 711
SWIDTH 545 0
DWIDTH 4 0
BBX 3 2 1 5
BITMAP
A0
40
ENDCHAR
STARTCHAR uni02C9
ENCODING 713
SWIDTH 545 0
DWIDTH 4 0
BBX 3 1 1 7
BITMAP
E0
ENDCHAR
STARTCHAR breve
ENCODING 728
SWIDTH 545 0
DWIDTH 4 0
BBX 3 2 1 5
BITMAP
A0
E0
ENDCHAR
STARTCHAR dotaccent
ENCODING 729
SWIDTH 545 0
DWIDTH 4 0
BBX 1 1 2 5
BITMAP
80
ENDCHAR
STARTCHAR ring
ENCODING 730
SWIDTH 545 0
DWIDTH 4 0
BBX 2 2 1 5
BITMAP
C0
C0
ENDCHAR
STARTCHAR ogonek
ENCODING 731
SWIDTH 545 0
DWIDTH 4 0
BBX 2 2 1 -1
BITMAP
80
C0
ENDCHAR
STARTCHAR tilde
ENCODING 732
SWIDTH 545 0
DWIDTH 4 0
BBX 4 2 0 5
BITMAP
50
A0
ENDCHAR
STARTCHAR hungarumlaut
ENCODING 733
SWIDTH 545 0
DWIDTH 4 0
BBX 5 2 0 5
BITMAP
48
90
ENDCHAR
STARTCHAR uni0326
ENCODING 806
SWIDTH 545 0
DWIDTH 4 0
BBX 1 1 2 -1
BITMAP
80
ENDCHAR
STARTCHAR pi
ENCODING 960
SWIDTH 562 0
DWIDTH 5 0
BBX 5 5 1 0
BITMAP
78
50
50
50
90
ENDCHAR
STARTCHAR uni0400
ENCODING 1024
SWIDTH 561 0
DWIDTH 4 0
BBX 4 8 1 0
BITMAP
20
00
F0
80
E0
80
80
F0
ENDCHAR
STARTCHAR afii10023
ENCODING 1025
SWIDTH 561 0
DWIDTH 4 0
BBX 4 8 1 0
BITMAP
50
00
F0
80
E0
80
80
F0
ENDCHAR
STARTCHAR afii10052
ENCODING 1027
SWIDTH 507 0
DWIDTH 4 0
BBX 4 8 1 0
BITMAP
20
00
90
80
80
80
80
80
ENDCHAR
STARTCHAR afii10053
ENCODING 1028
SWIDTH 599 0
DWIDTH 5 0
BBX 5 6 0 0
BITMAP
78
88
F0
80
88
38
ENDCHAR
STARTCHAR afii10054
ENCODING 1029
SWIDTH 557 0
DWIDTH 4 0
BBX 5 7 0 0
BITMAP
20
F0
80
60
10
98
E0
ENDCHAR
STARTCHAR afii10055
ENCODING 1030
SWIDTH 373 0
DWIDTH 3 0
BBX 2 6 1 0
BITMAP
C0
80
80
80
80
C0
ENDCHAR
STARTCHAR afii10056
ENCODING 1031
SWIDTH 373 0
DWIDTH 3 0
BBX 3 8 0 0
BITMAP
A0
00
E0
C0
C0
C0
C0
E0
ENDCHAR
STARTCHAR afii10057
ENCODING 1032
SWIDTH 416 0
DWIDTH 3 0
BBX 3 7 0 -1
BITMAP
20
20
20
20
20
20
C0
ENDCHAR
STARTCHAR afii10061
ENCODING 1036
SWIDTH 602 0
DWIDTH 5 0
BBX 4 8 1 0
BITMAP
20
00
90
A0
C0
A0
90
90
ENDCHAR
STARTCHAR uni040D
ENCODING 1037
SWIDTH 669 0
DWIDTH 5 0
BBX 5 8 1 0
BITMAP
20
00
90
98
A8
A8
48
88
ENDCHAR
STARTCHAR afii10062
ENCODING 1038
SWIDTH 575 0
DWIDTH 5 0
BBX 3 8 1 0
BITMAP
A0
00
A0
A0
A0
C0
40
C0
ENDCHAR
STARTCHAR afii10017
ENCODING 1040
SWIDTH 600 0
DWIDTH 5 0
BBX 5 6 0 0
BITMAP
20
30
50
70
48
88
ENDCHAR
STARTCHAR afii10018
ENCODING 1041
SWIDTH 588 0
DWIDTH 5 0
BBX 5 6 1 0
BITMAP
88
80
E0
98
B0
C0
ENDCHAR
STARTCHAR afii10019
ENCODING 1042
SWIDTH 588 0
DWIDTH 5 0
BBX 5 6 1 0
BITMAP
A0
90
E0
98
B0
C0
ENDCHAR
STARTCHAR afii10020
ENCODING 1043
SWIDTH 507 0
DWIDTH 4 0
BBX 4 6 1 0
BITMAP
90
80
80
80
80
80
ENDCHAR
STARTCHAR afii10021
ENCODING 1044
SWIDTH 683 0
DWIDTH 5 0
BBX 6 7 0 -1
BITMAP
38
28
28
48
C8
FC
04
ENDCHAR
STARTCHAR afii10022
ENCODING 1045
SWIDTH 561 0
DWIDTH 4 0
BBX 4 6 1 0
BITMAP
F0
80
E0
80
80
F0
ENDCHAR
STARTCHAR afii10024
ENCODING 1046
SWIDTH 894 0
DWIDTH 7 0
BBX 8 6 0 0
BITMAP
4A
2C
1C
2C
4A
89
ENDCHAR
STARTCHAR afii10025
ENCODING 1047
SWIDTH 532 0
DWIDTH 4 0
BBX 3 7 1 0
BITMAP
40
E0
20
C0
60
20
C0
ENDCHAR
STARTCHAR afii10026
ENCODING 1048
SWIDTH 669 0
DWIDTH 5 0
BBX 5 6 1 0
BITMAP
88
98
A8
E8
88
88
ENDCHAR
STARTCHAR afii10027
ENCODING 1049
SWIDTH 669 0
DWIDTH 5 0
BBX 5 8 1 0
BITMAP
E0
00
88
98
A8
E8
88
88
ENDCHAR
STARTCHAR afii10028
ENCODING 1050
SWIDTH 587 0
DWIDTH 5 0
BBX 5 6 1 0
BITMAP
90
A0
C0
A0
90
88
ENDCHAR
STARTCHAR afii10029
ENCODING 1051
SWIDTH 677 0
DWIDTH 5 0
BBX 5 6 0 0
BITMAP
28
28
28
28
48
88
ENDCHAR
STARTCHAR afii10030
ENCODING 1052
SWIDTH 770 0
DWIDTH 6 0
BBX 6 6 1 0
BITMAP
84
D4
B4
A4
84
84
ENDCHAR
STARTCHAR afii10031
ENCODING 1053
SWIDTH 674 0
DWIDTH 5 0
BBX 5 6 1 0
BITMAP
88
88
F8
88
88
88
ENDCHAR
STARTCHAR afii10032
ENCODING 1054
SWIDTH 708 0
DWIDTH 6 0
BBX 6 7 0 0
BITMAP
10
78
88
84
84
48
30
ENDCHAR
STARTCHAR afii10033
ENCODING 1055
SWIDTH 675 0
DWIDTH 5 0
BBX 5 6 1 0
BITMAP
88
88
88
88
88
88
ENDCHAR
STARTCHAR afii10034
ENCODING 1056
SWIDTH 550 0
DWIDTH 4 0
BBX 4 6 1 0
BITMAP
C0
90
B0
C0
80
80
ENDCHAR
STARTCHAR afii10035
ENCODING 1057
SWIDTH 601 0
DWIDTH 5 0
BBX 5 7 0 0
BITMAP
30
78
80
80
80
88
38
ENDCHAR
STARTCHAR afii10036
ENCODING 1058
SWIDTH 583 0
DWIDTH 5 0
BBX 5 6 0 0
BITMAP
F8
20
20
20
20
20
ENDCHAR
STARTCHAR afii10037
ENCODING 1059
SWIDTH 575 0
DWIDTH 5 0
BBX 4 6 1 0
BITMAP
90
A0
60
40
40
C0
ENDCHAR
STARTCHAR afii10038
ENCODING 1060
SWIDTH 748 0
DWIDTH 6 0
BBX 6 6 0 0
BITMAP
10
F4
94
94
F8
10
ENDCHAR
STARTCHAR afii10039
ENCODING 1061
SWIDTH 581 0
DWIDTH 5 0
BBX 5 6 0 0
BITMAP
48
30
20
30
50
88
ENDCHAR
STARTCHAR afii10040
ENCODING 1062
SWIDTH 685 0
DWIDTH 5 0
BBX 6 7 1 -1
BITMAP
88
88
88
88
88
FC
08
ENDCHAR
STARTCHAR afii10041
ENCODING 1063
SWIDTH 635 0
DWIDTH 5 0
BBX 5 6 1 0
BITMAP
90
90
90
18
10
10
ENDCHAR
STARTCHAR afii10042
ENCODING 1064
SWIDTH 943 0
DWIDTH 8 0
BBX 7 6 1 0
BITMAP
92
92
92
92
92
FE
ENDCHAR
STARTCHAR afii10043
ENCODING 1065
SWIDTH 958 0
DWIDTH 8 0
BBX 8 7 1 -1
BITMAP
92
92
92
92
92
FF
02
ENDCHAR
STARTCHAR afii10044
ENCODING 1066
SWIDTH 689 0
DWIDTH 6 0
BBX 5 6 1 0
BITMAP
C0
40
40
48
58
60
ENDCHAR
STARTCHAR afii10045
ENCODING 1067
SWIDTH 788 0
DWIDTH 6 0
BBX 6 6 1 0
BITMAP
84
84
84
94
B4
C4
ENDCHAR
STARTCHAR afii10046
ENCODING 1068
SWIDTH 582 0
DWIDTH 5 0
BBX 4 6 1 0
BITMAP
80
80
80
90
B0
C0
ENDCHAR
STARTCHAR afii10047
ENCODING 1069
SWIDTH 599 0
DWIDTH 5 0
BBX 5 7 0 0
BITMAP
20
D8
08
78
08
98
E0
ENDCHAR
STARTCHAR afii10048
ENCODING 1070
SWIDTH 951 0
DWIDTH 8 0
BBX 8 7 1 0
BITMAP
F8
9E
A3
E2
A2
96
98
ENDCHAR
STARTCHAR afii10049
ENCODING 1071
SWIDTH 611 0
DWIDTH 5 0
BBX 5 6 0 0
BITMAP
38
48
68
28
48
88
ENDCHAR
STARTCHAR afii10065
ENCODING 1072
SWIDTH 524 0
DWIDTH 4 0
BBX 4 5 0 0
BITMAP
60
10
30
90
70
ENDCHAR
STARTCHAR afii10066
ENCODING 1073
SWIDTH 549 0
DWIDTH 4 0
BBX 4 6 0 0
BITMAP
70
40
E0
90
50
60
ENDCHAR
STARTCHAR afii10067
ENCODING 1074
SWIDTH 524 0
DWIDTH 4 0
BBX 4 5 1 0
BITMAP
80
90
F0
B0
C0
ENDCHAR
STARTCHAR afii10068
ENCODING 1075
SWIDTH 415 0
DWIDTH 3 0
BBX 3 5 1 0
BITMAP
E0
80
80
80
40
ENDCHAR
STARTCHAR afii10069
ENCODING 1076
SWIDTH 558 0
DWIDTH 4 0
BBX 5 5 0 0
BITMAP
38
48
C8
48
F8
ENDCHAR
STARTCHAR afii10070
ENCODING 1077
SWIDTH 526 0
DWIDTH 4 0
BBX 4 5 0 0
BITMAP
20
70
F0
40
30
ENDCHAR
STARTCHAR afii10072
ENCODING 1078
SWIDTH 730 0
DWIDTH 6 0
BBX 6 5 0 0
BITMAP
54
38
30
54
94
ENDCHAR
STARTCHAR afii10073
ENCODING 1079
SWIDTH 457 0
DWIDTH 4 0
BBX 4 5 0 0
BITMAP
40
10
60
30
C0
ENDCHAR
STARTCHAR afii10074
ENCODING 1080
SWIDTH 563 0
DWIDTH 5 0
BBX 4 5 1 0
BITMAP
90
90
B0
D0
50
ENDCHAR
STARTCHAR afii10075
ENCODING 1081
SWIDTH 563 0
DWIDTH 5 0
BBX 4 6 1 0
BITMAP
70
90
90
B0
D0
50
ENDCHAR
STARTCHAR afii10076
ENCODING 1082
SWIDTH 498 0
DWIDTH 4 0
BBX 4 5 1 0
BITMAP
90
A0
C0
A0
90
ENDCHAR
STARTCHAR afii10077
ENCODING 1083
SWIDTH 555 0
DWIDTH 4 0
BBX 4 5 0 0
BITMAP
70
50
50
50
90
ENDCHAR
STARTCHAR afii10078
ENCODING 1084
SWIDTH 638 0
DWIDTH 5 0
BBX 5 5 1 0
BITMAP
88
D8
A8
88
48
ENDCHAR
STARTCHAR afii10079
ENCODING 1085
SWIDTH 562 0
DWIDTH 5 0
BBX 4 5 1 0
BITMAP
90
90
F0
90
F0
ENDCHAR
STARTCHAR afii10080
ENCODING 1086
SWIDTH 542 0
DWIDTH 4 0
BBX 4 5 0 0
BITMAP
20
50
90
50
70
ENDCHAR
STARTCHAR afii10081
ENCODING 1087
SWIDTH 563 0
DWIDTH 5 0
BBX 4 5 1 0
BITMAP
F0
90
90
90
F0
ENDCHAR
STARTCHAR afii10082
ENCODING 1088
SWIDTH 552 0
DWIDTH 4 0
BBX 4 6 1 -1
BITMAP
A0
90
90
90
A0
80
ENDCHAR
STARTCHAR afii10083
ENCODING 1089
SWIDTH 461 0
DWIDTH 4 0
BBX 4 5 0 0
BITMAP
10
40
80
80
70
ENDCHAR
STARTCHAR afii10084
ENCODING 1090
SWIDTH 466 0
DWIDTH 4 0
BBX 4 5 0 0
BITMAP
F0
20
20
20
20
ENDCHAR
STARTCHAR afii10085
ENCODING 1091
SWIDTH 498 0
DWIDTH 4 0
BBX 4 6 1 -1
BITMAP
90
A0
A0
40
40
C0
ENDCHAR
STARTCHAR afii10086
ENCODING 1092
SWIDTH 759 0
DWIDTH 6 0
BBX 6 7 0 -1
BITMAP
10
30
94
94
94
78
10
ENDCHAR
STARTCHAR afii10087
ENCODING 1093
SWIDTH 495 0
DWIDTH 4 0
BBX 4 5 0 0
BITMAP
50
50
60
50
90
ENDCHAR
STARTCHAR afii10088
ENCODING 1094
SWIDTH 571 0
DWIDTH 5 0
BBX 4 6 1 -1
BITMAP
90
90
90
90
F0
10
ENDCHAR
STARTCHAR afii10089
ENCODING 1095
SWIDTH 542 0
DWIDTH 4 0
BBX 4 5 0 0
BITMAP
90
90
70
10
10
ENDCHAR
STARTCHAR afii10090
ENCODING 1096
SWIDTH 778 0
DWIDTH 6 0
BBX 6 5 1 0
BITMAP
FC
94
94
94
FC
ENDCHAR
STARTCHAR afii10091
ENCODING 1097
SWIDTH 790 0
DWIDTH 6 0
BBX 6 6 1 -1
BITMAP
94
94
94
94
FC
04
ENDCHAR
STARTCHAR afii10092
ENCODING 1098
SWIDTH 568 0
DWIDTH 5 0
BBX 5 5 0 0
BITMAP
C0
40
40
58
60
ENDCHAR
STARTCHAR afii10093
ENCODING 1099
SWIDTH 692 0
DWIDTH 6 0
BBX 5 5 1 0
BITMAP
88
88
88
B8
C8
ENDCHAR
STARTCHAR afii10094
ENCODING 1100
SWIDTH 500 0
DWIDTH 4 0
BBX 4 5 1 0
BITMAP
80
80
80
B0
C0
ENDCHAR
STARTCHAR afii10095
ENCODING 1101
SWIDTH 471 0
DWIDTH 4 0
BBX 4 5 0 0
BITMAP
40
20
70
10
E0
ENDCHAR
STARTCHAR afii10096
ENCODING 1102
SWIDTH 761 0
DWIDTH 6 0
BBX 6 5 1 0
BITMAP
90
A4
A4
A4
78
ENDCHAR
STARTCHAR afii10097
ENCODING 1103
SWIDTH 500 0
DWIDTH 4 0
BBX 3 5 1 0
BITMAP
20
A0
E0
60
80
ENDCHAR
STARTCHAR uni0450
ENCODING 1104
SWIDTH 526 0
DWIDTH 4 0
BBX 4 7 0 0
BITMAP
C0
20
20
50
F0
80
F0
ENDCHAR
STARTCHAR afii10071
ENCODING 1105
SWIDTH 526 0
DWIDTH 4 0
BBX 4 7 0 0
BITMAP
50
00
20
70
F0
40
30
ENDCHAR
STARTCHAR afii10100
ENCODING 1107
SWIDTH 415 0
DWIDTH 3 0
BBX 3 7 1 0
BITMAP
20
40
E0
80
80
80
40
ENDCHAR
STARTCHAR afii10101
ENCODING 1108
SWIDTH 471 0
DWIDTH 4 0
BBX 4 5 0 0
BITMAP
10
40
80
40
70
ENDCHAR
STARTCHAR afii10102
ENCODING 1109
SWIDTH 446 0
DWIDTH 4 0
BBX 4 5 0 0
BITMAP
E0
80
70
10
F0
ENDCHAR
STARTCHAR afii10103
ENCODING 1110
SWIDTH 228 0
DWIDTH 2 0
BBX 1 7 0 0
BITMAP
80
00
80
80
80
80
80
ENDCHAR
STARTCHAR afii10104
ENCODING 1111
SWIDTH 228 0
DWIDTH 2 0
BBX 3 6 0 0
BITMAP
E0
40
40
40
40
40
ENDCHAR
STARTCHAR afii10105
ENCODING 1112
SWIDTH 281 0
DWIDTH 2 0
BBX 2 8 0 -1
BITMAP
40
00
40
40
40
40
40
C0
ENDCHAR
STARTCHAR afii10109
ENCODING 1116
SWIDTH 498 0
DWIDTH 4 0
BBX 4 7 1 0
BITMAP
20
40
90
A0
C0
A0
90
ENDCHAR
STARTCHAR uni045D
ENCODING 1117
SWIDTH 563 0
DWIDTH 5 0
BBX 4 7 1 0
BITMAP
40
20
90
B0
B0
D0
50
ENDCHAR
STARTCHAR afii10110
ENCODING 1118
SWIDTH 498 0
DWIDTH 4 0
BBX 4 8 1 -1
BITMAP
A0
40
E0
90
60
B0
40
C0
ENDCHAR
STARTCHAR afii10050
ENCODING 1168
SWIDTH 507 0
DWIDTH 4 0
BBX 4 7 1 0
BITMAP
10
90
80
80
80
80
80
ENDCHAR
STARTCHAR afii10098
ENCODING 1169
SWIDTH 415 0
DWIDTH 3 0
BBX 3 5 1 0
BITMAP
E0
80
80
80
40
ENDCHAR
STARTCHAR uni0492
ENCODING 1170
SWIDTH 507 0
DWIDTH 4 0
BBX 5 6 0 0
BITMAP
48
E0
40
40
40
40
ENDCHAR
STARTCHAR uni0493
ENCODING 1171
SWIDTH 415 0
DWIDTH 3 0
BBX 3 5 1 0
BITMAP
E0
80
C0
80
80
ENDCHAR
STARTCHAR uni049A
ENCODING 1178
SWIDTH 587 0
DWIDTH 5 0
BBX 5 7 1 -1
BITMAP
98
A0
C0
A0
98
88
08
ENDCHAR
STARTCHAR uni049B
ENCODING 1179
SWIDTH 498 0
DWIDTH 4 0
BBX 4 6 1 -1
BITMAP
90
A0
C0
A0
90
10
ENDCHAR
STARTCHAR uni04A2
ENCODING 1186
SWIDTH 674 0
DWIDTH 5 0
BBX 5 7 1 -1
BITMAP
88
88
F8
88
88
88
08
ENDCHAR
STARTCHAR uni04A3
ENCODING 1187
SWIDTH 562 0
DWIDTH 5 0
BBX 5 6 1 -1
BITMAP
90
90
90
90
70
08
ENDCHAR
STARTCHAR uni04AE
ENCODING 1198
SWIDTH 576 0
DWIDTH 5 0
BBX 4 6 1 0
BITMAP
90
60
40
40
40
40
ENDCHAR
STARTCHAR uni04AF
ENCODING 1199
SWIDTH 498 0
DWIDTH 4 0
BBX 4 6 0 -1
BITMAP
90
50
20
20
20
20
ENDCHAR
STARTCHAR uni04B0
ENCODING 1200
SWIDTH 576 0
DWIDTH 5 0
BBX 4 6 1 0
BITMAP
90
60
40
60
40
40
ENDCHAR
STARTCHAR uni04B1
ENCODING 1201
SWIDTH 498 0
DWIDTH 4 0
BBX 4 6 0 -1
BITMAP
90
50
20
20
30
20
ENDCHAR
STARTCHAR uni04BA
ENCODING 1210
SWIDTH 558 0
DWIDTH 4 0
BBX 4 6 1 0
BITMAP
80
A0
F0
90
90
90
ENDCHAR
STARTCHAR uni04BB
ENCODING 1211
SWIDTH 558 0
DWIDTH 4 0
BBX 4 5 1 0
BITMAP
80
A0
90
90
90
ENDCHAR
STARTCHAR uni04D8
ENCODING 1240
SWIDTH 599 0
DWIDTH 5 0
BBX 5 6 0 1
BITMAP
20
70
08
F8
88
50
ENDCHAR
STARTCHAR afii10846
ENCODING 1241
SWIDTH 471 0
DWIDTH 4 0
BBX 4 4 0 1
BITMAP
F0
10
90
50
ENDCHAR
STARTCHAR uni04E8
ENCODING 1256
SWIDTH 708 0
DWIDTH 6 0
BBX 6 7 0 0
BITMAP
10
78
88
F8
84
48
30
ENDCHAR
STARTCHAR uni04E9
ENCODING 1257
SWIDTH 542 0
DWIDTH 4 0
BBX 4 5 0 0
BITMAP
20
50
90
50
70
ENDCHAR
STARTCHAR endash
ENCODING 8211
SWIDTH 545 0
DWIDTH 4 0
BBX 4 1 1 3
BITMAP
F0
ENDCHAR
STARTCHAR emdash
ENCODING 8212
SWIDTH 909 0
DWIDTH 7 0
BBX 7 1 1 3
BITMAP
FE
ENDCHAR
STARTCHAR quoteleft
ENCODING 8216
SWIDTH 210 0
DWIDTH 2 0
BBX 2 2 0 4
BITMAP
80
40
ENDCHAR
STARTCHAR quoteright
ENCODING 8217
SWIDTH 210 0
DWIDTH 2 0
BBX 2 3 0 4
BITMAP
40
40
80
ENDCHAR
STARTCHAR quotesinglbase
ENCODING 8218
SWIDTH 210 0
DWIDTH 2 0
BBX 1 1 1 0
BITMAP
80
ENDCHAR
STARTCHAR quotedblleft
ENCODING 8220
SWIDTH 400 0
DWIDTH 3 0
BBX 3 2 0 4
BITMAP
A0
60
ENDCHAR
STARTCHAR quotedblright
ENCODING 8221
SWIDTH 400 0
DWIDTH 3 0
BBX 3 3 0 4
BITMAP
60
60
A0
ENDCHAR
STARTCHAR quotedblbase
ENCODING 8222
SWIDTH 396 0
DWIDTH 3 0
BBX 2 1 1 0
BITMAP
C0
ENDCHAR
STARTCHAR dagger
ENCODING 8224
SWIDTH 545 0
DWIDTH 4 0
BBX 3 5 2 1
BITMAP
40
E0
40
40
40
ENDCHAR
STARTCHAR daggerdbl
ENCODING 8225
SWIDTH 545 0
DWIDTH 4 0
BBX 4 5 1 1
BITMAP
20
F0
20
F0
20
ENDCHAR
STARTCHAR bullet
ENCODING 8226
SWIDTH 455 0
DWIDTH 4 0
BBX 3 2 0 2
BITMAP
60
E0
ENDCHAR
STARTCHAR ellipsis
ENCODING 8230
SWIDTH 816 0
DWIDTH 7 0
BBX 6 1 1 0
BITMAP
94
ENDCHAR
STARTCHAR perthousand
ENCODING 8240
SWIDTH 1391 0
DWIDTH 11 0
BBX 11 7 0 0
BITMAP
4200
6400
A800
6A40
19A0
29A0
27C0
ENDCHAR
STARTCHAR guilsinglleft
ENCODING 8249
SWIDTH 382 0
DWIDTH 3 0
BBX 2 4 1 1
BITMAP
80
80
80
40
ENDCHAR
STARTCHAR guilsinglright
ENCODING 8250
SWIDTH 382 0
DWIDTH 3 0
BBX 2 4 1 1
BITMAP
80
40
40
80
ENDCHAR
STARTCHAR Euro
ENCODING 8364
SWIDTH 545 0
DWIDTH 4 0
BBX 5 7 0 0
BITMAP
10
78
F0
40
E0
48
70
ENDCHAR
STARTCHAR afii61352
ENCODING 8470
SWIDTH 666 0
DWIDTH 5 0
BBX 6 7 1 0
BITMAP
98
9C
D8
D0
B0
90
90
ENDCHAR
STARTCHAR trademark
ENCODING 8482
SWIDTH 875 0
DWIDTH 7 0
BBX 6 3 1 4
BITMAP
D4
BC
B4
ENDCHAR
STARTCHAR uni2126
ENCODING 8486
SWIDTH 702 0
DWIDTH 6 0
BBX 6 6 0 0
BITMAP
FC
84
84
44
44
CC
ENDCHAR
STARTCHAR oneeighth
ENCODING 8539
SWIDTH 1000 0
DWIDTH 8 0
BBX 8 6 1 0
BITMAP
48
4A
55
9B
25
46
ENDCHAR
STARTCHAR threeeighths
ENCODING 8540
SWIDTH 1000 0
DWIDTH 8 0
BBX 8 7 1 0
BITMAP
44
28
68
3B
FE
2A
26
ENDCHAR
STARTCHAR fiveeighths
ENCODING 8541
SWIDTH 1000 0
DWIDTH 8 0
BBX 8 7 1 0
BITMAP
E4
84
E8
37
17
25
26
ENDCHAR
STARTCHAR seveneighths
ENCODING 8542
SWIDTH 545 0
DWIDTH 4 0
BBX 7 7 1 0
BITMAP
E4
28
28
5A
1E
2A
46
ENDCHAR
STARTCHAR partialdiff
ENCODING 8706
SWIDTH 545 0
DWIDTH 4 0
BBX 4 7 0 0
BITMAP
20
D0
10
30
50
90
60
ENDCHAR
STARTCHAR uni2206
ENCODING 8710
SWIDTH 619 0
DWIDTH 5 0
BBX 5 6 1 0
BITMAP
20
60
50
90
88
F8
ENDCHAR
STARTCHAR product
ENCODING 8719
SWIDTH 680 0
DWIDTH 5 0
BBX 5 6 1 0
BITMAP
F8
88
88
88
88
88
ENDCHAR
STARTCHAR summation
ENCODING 8721
SWIDTH 636 0
DWIDTH 5 0
BBX 4 6 1 0
BITMAP
F0
40
40
40
80
F0
ENDCHAR
STARTCHAR minus
ENCODING 8722
SWIDTH 728 0
DWIDTH 6 0
BBX 4 1 2 3
BITMAP
F0
ENDCHAR
STARTCHAR uni2215
ENCODING 8725
SWIDTH 381 0
DWIDTH 3 0
BBX 4 6 0 0
BITMAP
10
20
20
40
40
80
ENDCHAR
STARTCHAR uni2219
ENCODING 8729
SWIDTH 303 0
DWIDTH 2 0
BBX 1 1 1 3
BITMAP
80
ENDCHAR
STARTCHAR radical
ENCODING 8730
SWIDTH 728 0
DWIDTH 6 0
BBX 5 8 1 0
BITMAP
08
08
10
10
90
60
60
40
ENDCHAR
STARTCHAR infinity
ENCODING 8734
SWIDTH 909 0
DWIDTH 7 0
BBX 8 4 0 1
BITMAP
44
B2
92
EF
ENDCHAR
STARTCHAR integral
ENCODING 8747
SWIDTH 545 0
DWIDTH 4 0
BBX 4 8 0 -1
BITMAP
10
30
20
20
20
20
20
E0
ENDCHAR
STARTCHAR approxequal
ENCODING 8776
SWIDTH 728 0
DWIDTH 6 0
BBX 4 2 2 2
BITMAP
F0
F0
ENDCHAR
STARTCHAR notequal
ENCODING 8800
SWIDTH 728 0
DWIDTH 6 0
BBX 4 4 2 1
BITMAP
20
F0
F0
80
ENDCHAR
STARTCHAR lessequal
ENCODING 8804
SWIDTH 728 0
DWIDTH 6 0
BBX 5 5 1 0
BITMAP
18
C0
30
00
78
ENDCHAR
STARTCHAR greaterequal
ENCODING 8805
SWIDTH 728 0
DWIDTH 6 0
BBX 5 5 1 0
BITMAP
C0
18
60
00
78
ENDCHAR
STARTCHAR lozenge
ENCODING 9674
SWIDTH 728 0
DWIDTH 6 0
BBX 5 8 0 -1
BITMAP
20
30
48
48
88
48
30
20
ENDCHAR
STARTCHAR uniFB01
ENCODING 64257
SWIDTH 533 0
DWIDTH 4 0
BBX 4 7 1 0
BITMAP
50
80
F0
90
90
90
90
ENDCHAR
STARTCHAR uniFB02
ENCODING 64258
SWIDTH 529 0
DWIDTH 4 0
BBX 5 7 0 0
BITMAP
18
48
E8
48
48
48
48
ENDCHAR
STARTCHAR .notdef
ENCODING -1
SWIDTH 1000 0
DWIDTH 8 0
BBX 7 7 1 0
BITMAP
7E
82
82
82
82
82
7E
ENDCHAR
STARTCHAR .null
ENCODING -1
SWIDTH 0 0
DWIDTH 2 0
BBX 1 1 0 0
BITMAP
00
ENDCHAR
STARTCHAR nonmarkingreturn
ENCODING -1
SWIDTH 333 0
DWIDTH 2 0
BBX 1 1 0 0
BITMAP
00
ENDCHAR
STARTCHAR ch269
ENCODING -1
SWIDTH 317 0
DWIDTH 3 0
BBX 1 1 1 3
BITMAP
80
ENDCHAR
ENDFONT
